<?xml version="1.0" encoding="utf-8"?>
<!-- Generator: Adobe Illustrator 27.9.0, SVG Export Plug-In . SVG Version: 6.00 Build 0)  -->
<svg version="1.1" id="Слой_1" xmlns="http://www.w3.org/2000/svg" xmlns:xlink="http://www.w3.org/1999/xlink" x="0px" y="0px"
	 viewBox="0 0 321.7 109.3" style="enable-background:new 0 0 321.7 109.3;" xml:space="preserve">
<style type="text/css">
	.st0{fill:#F13160;}
	.st1{fill:#F13160;}
</style>
<radialGradient id="SVGID_1_" cx="54.6666" cy="54.6667" r="54.6666" gradientUnits="userSpaceOnUse">
	<stop  offset="0" style="stop-color:#ED1557"/>
	<stop  offset="0.2401" style="stop-color:#E91455"/>
	<stop  offset="0.4206" style="stop-color:#E11252"/>
	<stop  offset="0.5814" style="stop-color:#D50F4E"/>
	<stop  offset="0.731" style="stop-color:#C40A47"/>
	<stop  offset="0.8714" style="stop-color:#AD033D"/>
	<stop  offset="1" style="stop-color:#940032"/>
</radialGradient>
<path class="st0" d="M88.1,24.2L31.9,68.8c-5.4,4.2-13.3,0.4-13.3-6.4V23.2h0c7.2,0,13,5.8,13,13v16.2l42.8-33.9
	c5.7-4.5,4.1-13.6-2.9-15.8C66.2,0.9,60.6,0,54.7,0C25.6,0,1.2,23.3,0,52.4c-0.5,11.1,2.4,21.5,7.7,30.3c2.9,4.9,9,6,13.5,2.5
	l56.2-44.5c5.4-4.2,13.3-0.4,13.3,6.4v39.2h0c-7.2,0-13-5.8-13-13V56.9L34.9,90.8c-5.7,4.5-4.1,13.6,2.9,15.8
	c5.3,1.7,11,2.7,16.8,2.7c29.1,0,53.5-23.3,54.6-52.4c0.5-11.1-2.4-21.5-7.7-30.3C98.7,21.8,92.6,20.7,88.1,24.2z"/>
<g>
	<g>
		<path class="st1" d="M166.6,39.2c-0.4-0.4-0.9-0.7-1.5-0.9c-1.1-0.4-2.4-0.4-3.6,0c-0.6,0.2-1.2,0.6-2,1.3l-22,19.8V46.2
			c0-4.3-3.5-7.7-7.7-7.7h-0.3v27.3c0,1,0.1,1.9,0.4,2.6c0.3,0.7,0.7,1.3,1.1,1.7c0.4,0.4,1,0.8,1.6,1c1.2,0.4,2.5,0.4,3.7,0
			c0.5-0.2,1.2-0.6,1.9-1.3l22-19.8v13.1c0,4.3,3.5,7.7,7.7,7.7h0.3V43.5c0-1-0.1-1.9-0.4-2.6C167.4,40.2,167,39.6,166.6,39.2z"/>
		<path class="st1" d="M261.5,38.9c-0.9-0.7-2-1-3.1-1c-1.2,0-2.2,0.3-3,0.8c-0.8,0.6-1.5,1.4-2.1,2.4l-5.4,9.6
			c-0.7,1.3-1.4,2.5-1.9,3.4c-0.6,1-1,1.9-1.5,2.6c-0.4,0.8-0.8,1.5-1.1,2.1c-0.3,0.6-0.6,1.2-0.9,1.8l-0.6,1.5l-1.6-3.3
			c-0.3-0.6-0.7-1.3-1.1-2.1c-0.4-0.8-0.9-1.7-1.5-2.6c-0.6-1-1.2-2.1-1.9-3.5l-5.4-9.6c-0.6-1-1.2-1.8-2.1-2.4
			c-0.8-0.5-1.8-0.8-3-0.8c-1.2,0-2.2,0.3-3.2,1c-0.9,0.7-1.6,1.7-2,3.1l-8.5,28.8h2.8c3.5,0,6.5-2.3,7.4-5.7l1.5-5.5
			c0.5-1.9,0.9-3.6,1.3-5.1c0.4-1.4,0.7-2.8,1-4.2l0.4-2.2l1.8,3.8c0.3,0.6,0.6,1.2,1,2c0.4,0.7,0.8,1.5,1.3,2.5
			c0.5,0.9,1,1.9,1.6,3.1l4.6,8.5c0.4,0.8,0.8,1.4,1.2,1.8c0.4,0.4,0.8,0.8,1.2,1c0.4,0.2,0.8,0.4,1.3,0.4c1,0.2,2.3,0.2,3.3,0
			c0.5-0.1,0.9-0.2,1.3-0.4c0.4-0.2,0.8-0.6,1.2-1c0.4-0.4,0.8-1.1,1.2-1.8l4.6-8.5c1.1-2.2,2.1-4,2.8-5.4c0.7-1.4,1.3-2.7,1.9-3.9
			l1-2l0.4,2.2c0.3,1.4,0.6,2.8,1,4.2c0.4,1.4,0.8,3.1,1.4,5l1.5,5.5c0.9,3.4,4,5.7,7.4,5.7h2.9L263.5,42
			C263.1,40.6,262.4,39.6,261.5,38.9z"/>
		<path class="st1" d="M183,61.3c-1-0.8-1.7-1.7-2.3-2.8c-0.5-1.1-0.8-2.3-0.8-3.6c0-1.3,0.3-2.6,0.8-3.7c0.5-1.1,1.3-2.1,2.3-2.8
			c0.9-0.8,2.1-1.4,3.4-1.8c1.3-0.4,2.7-0.6,4.2-0.6h15.9c4.5,0,8.5-3,9.8-7.3v0h-25.6c-2.8,0-5.5,0.4-7.9,1.2
			c-2.4,0.8-4.5,1.9-6.2,3.3c-1.7,1.4-3.1,3.1-4.1,5c-1,1.9-1.5,4.1-1.5,6.4c0,2.3,0.5,4.5,1.5,6.5c1,2,2.3,3.8,4.1,5.2
			c1.7,1.5,3.8,2.6,6.2,3.5c2.4,0.8,5.1,1.3,7.9,1.3h16.1l2.1-7.2h-18.2c-1.5,0-2.9-0.2-4.2-0.6C185.1,62.6,184,62,183,61.3z"/>
		<path class="st1" d="M300.8,41.4c-0.7-0.9-1.5-1.7-2.5-2.5c-0.9-0.7-2.2-1-3.7-1c-1.4,0-2.6,0.3-3.5,1c-1,0.7-1.8,1.5-2.5,2.5
			l-15.2,22l2.1,7.4l4.2,0l3.6-5.5h23.9l1.6,2.3c1.4,2,3.8,3.3,6.3,3.3h6.6L300.8,41.4z M287.3,59.3l7.6-11.5l8.1,11.5H287.3z"/>
	</g>
</g>
</svg>
